<svg width="24" height="24" viewBox="0 0 24 24" fill="none" xmlns="http://www.w3.org/2000/svg">
<g clip-path="url(#clip0_1014_1833)">
<path d="M13.7225 20C13.5491 20.3038 13.2984 20.5563 12.9959 20.7319C12.6933 20.9075 12.3497 21 11.9999 21C11.6501 21 11.3066 20.9075 11.004 20.7319C10.7015 20.5563 10.4508 20.3038 10.2773 20" stroke="currentColor" stroke-width="1.5" stroke-linecap="round" stroke-linejoin="round"/>
<path d="M6.50099 9V8.4991C6.50099 7.04065 7.08035 5.64194 8.11163 4.61066C9.14291 3.57938 10.5416 3.00001 12.0001 3V3C13.4585 3 14.8572 3.57937 15.8885 4.61065C16.9198 5.64193 17.4992 7.04065 17.4992 8.4991V8.99998C17.4992 11.5964 18.3413 14.1228 19.8992 16.2V16.2C19.9549 16.2743 19.9888 16.3626 19.9971 16.4551C20.0055 16.5476 19.9879 16.6405 19.9464 16.7236C19.9048 16.8066 19.841 16.8765 19.762 16.9253C19.683 16.9741 19.592 17 19.4992 17H4.50098C4.40812 17 4.3171 16.9741 4.23811 16.9253C4.15912 16.8765 4.09529 16.8066 4.05376 16.7236C4.01224 16.6405 3.99466 16.5476 4.003 16.4551C4.01134 16.3626 4.04526 16.2743 4.10098 16.2C5.65884 14.1228 6.50098 11.5964 6.50098 8.99998L6.50099 9Z" stroke="currentColor" stroke-width="1.5" stroke-linecap="round" stroke-linejoin="round"/>
</g>
<defs>
<clipPath id="clip0_1014_1833">
<rect width="24" height="24" fill="white"/>
</clipPath>
</defs>
</svg>
