<svg width="147" height="144" viewBox="0 0 147 144" fill="none" xmlns="http://www.w3.org/2000/svg">
<rect x="1.5" y="137" width="143" height="6" rx="3" stroke="#212427" stroke-width="2"/>
<path d="M7.24274 101.346C-2.97782 63.2023 19.6464 23.9504 57.7884 13.7303C95.9304 3.51018 135.15 26.1912 145.37 64.3348C145.435 64.5763 145.291 64.8239 145.052 64.8881L7.79532 101.666C7.55558 101.73 7.30743 101.587 7.24274 101.346Z" stroke="#212427" stroke-width="2"/>
<circle cx="48" cy="112.5" r="5.5" fill="#212427" stroke="#212427" stroke-width="2"/>
<circle cx="97" cy="112.5" r="5.5" fill="#212427" stroke="#212427" stroke-width="2"/>
<path d="M59.5 122C59.5 122 62.5 116 72.5 116C82.5 116 85.5 122 85.5 122" stroke="#212427" stroke-width="2" stroke-linecap="round"/>
<path d="M48.6719 16.1731C48.1259 12.2338 50.5872 8.41293 54.5278 7.35704L55.4938 7.09822C59.4344 6.04234 63.4764 8.12069 64.9731 11.8052L48.6719 16.1731Z" stroke="#212427" stroke-width="2"/>
</svg>
