<svg width="23" height="24" viewBox="0 0 23 24" fill="none" xmlns="http://www.w3.org/2000/svg">
<path d="M10.8581 17.4632C10.4735 17.3096 10.0371 17.4968 9.88339 17.8814C9.7297 18.2661 9.91693 18.7025 10.3016 18.8562L10.8581 17.4632ZM12.6603 19.6423C13.0604 19.7492 13.4715 19.5114 13.5784 19.1112C13.6853 18.7111 13.4475 18.3 13.0474 18.1931L12.6603 19.6423ZM4.13698 9.13916L4.58698 9.73916L5.01943 9.41482L4.84849 8.90199L4.13698 9.13916ZM16.6437 18.614L16.0197 19.03L16.2423 19.364H16.6437V18.614ZM13.6118 16.34L12.8842 16.5219L12.9933 16.9585L13.4299 17.0676L13.6118 16.34ZM6.41093 8.38118L5.74011 8.71659L5.94741 9.13118H6.41093V8.38118ZM7.16892 4.59127L7.58495 5.2153V5.2153L7.16892 4.59127ZM4.13698 12.1711L3.80157 12.8419H3.80157L4.13698 12.1711ZM6.60138 14.2607C6.33182 13.9462 5.85834 13.9098 5.54385 14.1793C5.22935 14.4489 5.19293 14.9224 5.4625 15.2369L6.60138 14.2607ZM8.72847 18.0725C9.09896 18.2578 9.54946 18.1076 9.7347 17.7371C9.91994 17.3666 9.76978 16.9161 9.39929 16.7309L8.72847 18.0725ZM11.7168 18.614L11.4386 19.3104L11.5233 19.3386L11.7168 18.614ZM3.68698 8.53916C3.30918 8.82251 2.95754 9.29356 2.70185 9.83052C2.44028 10.3798 2.25 11.058 2.25 11.7921H3.75C3.75 11.3135 3.87555 10.8547 4.05614 10.4754C4.2426 10.0838 4.45945 9.8348 4.58698 9.73916L3.68698 8.53916ZM2.25 11.7921C2.25 13.4921 2.69551 14.7838 3.91597 16.411L5.11597 15.511C4.06248 14.1064 3.75 13.1241 3.75 11.7921H2.25ZM3.91597 16.411C5.14519 18.05 7.15414 19.6402 9.90542 20.8193L10.4963 19.4406C7.94168 18.3458 6.1607 16.904 5.11597 15.511L3.91597 16.411ZM9.90542 20.8193C11.4088 21.4636 13.7444 21.5424 15.7036 21.3991C16.7037 21.3259 17.6528 21.1912 18.4119 21.0218C18.7903 20.9374 19.1357 20.8412 19.4224 20.734C19.6814 20.6372 19.9902 20.4971 20.206 20.2813L19.1453 19.2206C19.1716 19.1944 19.1251 19.2437 18.8971 19.329C18.6968 19.4039 18.4233 19.4824 18.0852 19.5578C17.4111 19.7083 16.5364 19.8341 15.5941 19.9031C13.6687 20.044 11.6459 19.9333 10.4963 19.4406L9.90542 20.8193ZM20.206 20.2813C20.4529 20.0344 20.6534 19.744 20.7238 19.4065C20.8004 19.0385 20.7034 18.7028 20.5125 18.4482C20.338 18.2155 20.1061 18.0749 19.9134 17.9938C19.7193 17.9121 19.5022 17.864 19.2967 17.864V19.364C19.2842 19.364 19.2847 19.3627 19.2964 19.3652C19.3071 19.3675 19.3197 19.3714 19.3313 19.3763C19.3432 19.3813 19.3479 19.3847 19.3462 19.3836C19.3448 19.3825 19.3305 19.3722 19.3125 19.3482C19.2934 19.3228 19.2714 19.2833 19.2591 19.2314C19.2465 19.1782 19.2488 19.1318 19.2553 19.1006C19.2612 19.072 19.268 19.0683 19.254 19.0911C19.2397 19.1143 19.208 19.158 19.1453 19.2206L20.206 20.2813ZM19.2967 17.864H16.6437V19.364H19.2967V17.864ZM17.2678 18.198C17.1365 18.0011 16.9218 17.6888 16.6996 17.3849C16.4877 17.095 16.2352 16.7658 16.0371 16.5677L14.9764 17.6283C15.0815 17.7334 15.2712 17.9727 15.4888 18.2702C15.6961 18.5538 15.8983 18.8479 16.0197 19.03L17.2678 18.198ZM16.0371 16.5677C15.8718 16.4024 15.6564 16.2813 15.4864 16.1972C15.3006 16.1053 15.0928 16.0212 14.8919 15.948C14.4895 15.8014 14.0658 15.6804 13.7937 15.6124L13.4299 17.0676C13.6631 17.1259 14.0353 17.2324 14.3783 17.3574C14.55 17.4199 14.7023 17.4828 14.8212 17.5416C14.956 17.6083 14.9901 17.642 14.9764 17.6283L16.0371 16.5677ZM14.3394 16.1581C14.0878 15.1516 13.4144 12.7522 12.7666 11.4567L11.425 12.1275C11.99 13.2576 12.6305 15.5072 12.8842 16.5219L14.3394 16.1581ZM12.7666 11.4567C12.3591 10.6417 11.7465 9.71885 11.0154 8.98783C10.3057 8.27807 9.36496 7.63118 8.3059 7.63118V9.13118C8.7628 9.13118 9.33805 9.43176 9.95477 10.0485C10.5502 10.6439 11.0745 11.4266 11.425 12.1275L12.7666 11.4567ZM8.3059 7.63118H6.41093V9.13118H8.3059V7.63118ZM7.08175 8.04576C6.87923 7.64072 6.83843 7.54714 6.81475 7.42873C6.78561 7.28302 6.78194 7.09074 6.78194 6.48621H5.28194C5.28194 7.01867 5.27827 7.39488 5.34388 7.7229C5.41494 8.07823 5.56364 8.36365 5.74011 8.71659L7.08175 8.04576ZM6.78194 6.48621C6.78194 5.81504 7.18031 5.48506 7.58495 5.2153L6.75289 3.96723C6.26561 4.29209 5.28194 5.01348 5.28194 6.48621H6.78194ZM7.58495 5.2153C7.98588 4.94801 8.28993 4.57531 8.37003 4.10804C8.45056 3.63827 8.27936 3.21836 8.02261 2.91881C7.529 2.34294 6.63631 2.08325 5.79477 2.36377L6.26911 3.78679C6.40953 3.73999 6.54511 3.74134 6.65912 3.7712C6.77856 3.80248 6.85267 3.85877 6.88372 3.89499C6.91121 3.92707 6.88213 3.90984 6.8916 3.8546C6.90064 3.80185 6.92044 3.85553 6.75289 3.96723L7.58495 5.2153ZM5.79477 2.36377C5.03568 2.6168 4.3524 3.21193 3.8686 3.857C3.38775 4.49814 3.00799 5.31716 3.00799 6.10722H4.50799C4.50799 5.7603 4.69671 5.25285 5.0686 4.757C5.43752 4.2651 5.89123 3.91275 6.26911 3.78679L5.79477 2.36377ZM3.00799 6.10722C3.00799 7.04366 3.13457 8.50365 3.42547 9.37633L4.84849 8.90199C4.63406 8.25871 4.50799 6.98995 4.50799 6.10722H3.00799ZM2.70833 10.6115C2.83761 10.8701 2.85274 11.1059 2.93657 11.5372C3.00655 11.8974 3.15396 12.5181 3.80157 12.8419L4.47239 11.5003C4.46845 11.4983 4.4732 11.5003 4.47991 11.5071C4.48595 11.5133 4.48525 11.5149 4.47964 11.5042C4.46311 11.4728 4.43913 11.406 4.40902 11.2511C4.36028 11.0003 4.2997 10.4402 4.04998 9.94074L2.70833 10.6115ZM3.80157 12.8419C4.3297 13.106 4.82124 12.9215 5.13361 12.6998C5.42608 12.4923 5.66376 12.1912 5.84102 11.938C6.02483 11.6754 6.19471 11.3877 6.3242 11.1738C6.39234 11.0612 6.4481 10.9708 6.49604 10.8992C6.54897 10.8201 6.56907 10.7997 6.5623 10.8065L5.50164 9.74581C5.32741 9.92004 5.15733 10.2048 5.04096 10.3971C4.89805 10.6332 4.75999 10.8666 4.61218 11.0778C4.45781 11.2983 4.34017 11.4236 4.2655 11.4766C4.21071 11.5154 4.32326 11.4257 4.47239 11.5003L3.80157 12.8419ZM6.5623 10.8065C6.43761 10.9312 6.28167 10.983 6.15196 10.9885C6.04342 10.993 5.97403 10.9653 5.96613 10.9622C5.95492 10.9578 5.99613 10.9751 6.11043 11.0622C6.33717 11.235 6.59853 11.4788 6.96518 11.7931C7.30079 12.0807 7.70562 12.4089 8.12139 12.6383C8.51142 12.8535 9.08618 13.0806 9.68021 12.8826L9.20587 11.4596C9.2314 11.4511 9.14291 11.4887 8.84599 11.3249C8.57481 11.1753 8.26899 10.935 7.94134 10.6542C7.64472 10.3999 7.29018 10.0753 7.01947 9.86906C6.88504 9.76664 6.70714 9.64184 6.51531 9.56637C6.35028 9.50144 5.88015 9.36729 5.50164 9.74581L6.5623 10.8065ZM9.68021 12.8826C9.86998 12.8194 10.0978 12.7178 10.2773 12.5313C10.4913 12.3089 10.5854 12.0184 10.5485 11.7228C10.5179 11.4783 10.4042 11.2843 10.326 11.1676C10.2417 11.0416 10.1401 10.9219 10.0548 10.8245C9.86275 10.605 9.7105 10.4451 9.58501 10.2592C9.46542 10.0821 9.43505 9.96964 9.43505 9.89717H7.93505C7.93505 10.3932 8.14155 10.8019 8.34174 11.0984C8.53602 11.3863 8.78645 11.6528 8.92598 11.8123C9.00655 11.9043 9.053 11.9623 9.07967 12.0022C9.11253 12.0512 9.07285 12.0112 9.06006 11.9088C9.04086 11.7553 9.09647 11.5951 9.19654 11.4911C9.26199 11.4231 9.30034 11.4281 9.20587 11.4596L9.68021 12.8826ZM9.43505 9.89717C9.43505 9.39231 9.44195 9.33028 9.45506 9.28307C9.45906 9.26869 9.46853 9.2398 9.51576 9.14534C9.53951 9.09783 9.56739 9.0442 9.60521 8.97103C9.64198 8.89989 9.68524 8.81586 9.73486 8.71661L8.39322 8.04579C8.3481 8.13603 8.30846 8.21307 8.27268 8.28228C8.23796 8.34946 8.20366 8.41544 8.17412 8.47452C8.11476 8.59325 8.05317 8.72543 8.00979 8.8816C7.92815 9.17549 7.93505 9.49245 7.93505 9.89717H9.43505ZM5.4625 15.2369C5.86904 15.7112 6.46301 16.3039 7.04964 16.8253C7.6192 17.3316 8.25227 17.8344 8.72847 18.0725L9.39929 16.7309C9.11751 16.59 8.6136 16.2086 8.04618 15.7042C7.49583 15.215 6.95283 14.6707 6.60138 14.2607L5.4625 15.2369ZM10.3016 18.8562L11.4386 19.3104L11.9951 17.9175L10.8581 17.4632L10.3016 18.8562ZM11.5233 19.3386L12.6603 19.6423L13.0474 18.1931L11.9104 17.8894L11.5233 19.3386Z" fill="#D11A2A"/>
</svg>
